# Blender 4.0.2
# www.blender.org
mtllib objets_blender.mtl
o Sol
v 5.000000 0.100000 -5.000000
v 5.000000 -0.100000 -5.000000
v 5.000000 0.100000 5.000000
v 5.000000 -0.100000 5.000000
v -5.000000 0.100000 -5.000000
v -5.000000 -0.100000 -5.000000
v -5.000000 0.100000 5.000000
v -5.000000 -0.100000 5.000000
vn -0.0000 1.0000 -0.0000
vn -0.0000 -0.0000 1.0000
vn -1.0000 -0.0000 -0.0000
vn -0.0000 -1.0000 -0.0000
vn 1.0000 -0.0000 -0.0000
vn -0.0000 -0.0000 -1.0000
vt 0.625000 0.500000
vt 0.875000 0.500000
vt 0.875000 0.750000
vt 0.625000 0.750000
vt 0.375000 0.750000
vt 0.625000 1.000000
vt 0.375000 1.000000
vt 0.375000 0.000000
vt 0.625000 0.000000
vt 0.625000 0.250000
vt 0.375000 0.250000
vt 0.125000 0.500000
vt 0.375000 0.500000
vt 0.125000 0.750000
s 0
usemtl Material
f 1/1/1 5/2/1 7/3/1 3/4/1
f 4/5/2 3/4/2 7/6/2 8/7/2
f 8/8/3 7/9/3 5/10/3 6/11/3
f 6/12/4 2/13/4 4/5/4 8/14/4
f 2/13/5 1/1/5 3/4/5 4/5/5
f 6/11/6 5/10/6 1/1/6 2/13/6
o Bureau
v 3.440124 2.101375 -2.051124
v 3.440124 2.298625 -2.051124
v 3.440124 2.101375 -4.329656
v 3.440124 2.298625 -4.329656
v -3.514712 2.101375 -2.051124
v -3.514712 2.298625 -2.051124
v -3.514712 2.101375 -4.329656
v -3.514712 2.298625 -4.329656
v -1.557560 0.100000 -2.237790
v -1.557560 2.100000 -2.237790
v -1.557560 0.100000 -4.237790
v -1.557560 2.100000 -4.237790
v -3.021680 0.100000 -2.237790
v -3.021680 2.100000 -2.237790
v -3.021680 0.100000 -4.237790
v -3.021680 2.100000 -4.237790
v 2.916870 0.100000 -2.237787
v 2.916870 2.100000 -2.237787
v 2.916870 0.100000 -4.237787
v 2.916870 2.100000 -4.237787
v 1.452750 0.100000 -2.237787
v 1.452750 2.100000 -2.237787
v 1.452750 0.100000 -4.237787
v 1.452750 2.100000 -4.237787
vn 1.0000 -0.0000 -0.0000
vn -0.0000 -0.0000 -1.0000
vn -1.0000 -0.0000 -0.0000
vn -0.0000 -0.0000 1.0000
vn -0.0000 -1.0000 -0.0000
vn -0.0000 1.0000 -0.0000
vt 0.375000 0.000000
vt 0.625000 0.000000
vt 0.625000 0.250000
vt 0.375000 0.250000
vt 0.625000 0.500000
vt 0.375000 0.500000
vt 0.625000 0.750000
vt 0.375000 0.750000
vt 0.625000 1.000000
vt 0.375000 1.000000
vt 0.125000 0.500000
vt 0.125000 0.750000
vt 0.875000 0.500000
vt 0.875000 0.750000
s 0
f 9/15/7 11/18/7 12/17/7 10/16/7
f 11/18/8 15/20/8 16/19/8 12/17/8
f 15/20/9 13/22/9 14/21/9 16/19/9
f 13/22/10 9/24/10 10/23/10 14/21/10
f 11/25/11 9/26/11 13/22/11 15/20/11
f 16/19/12 14/21/12 10/28/12 12/27/12
f 17/15/7 19/18/7 20/17/7 18/16/7
f 19/18/8 23/20/8 24/19/8 20/17/8
f 23/20/9 21/22/9 22/21/9 24/19/9
f 21/22/10 17/24/10 18/23/10 22/21/10
f 19/25/11 17/26/11 21/22/11 23/20/11
f 24/19/12 22/21/12 18/28/12 20/27/12
f 25/15/7 27/18/7 28/17/7 26/16/7
f 27/18/8 31/20/8 32/19/8 28/17/8
f 31/20/9 29/22/9 30/21/9 32/19/9
f 29/22/10 25/24/10 26/23/10 30/21/10
f 27/25/11 25/26/11 29/22/11 31/20/11
f 32/19/12 30/21/12 26/28/12 28/27/12
o Crayon
v 3.188665 0.001172 -1.957957
v 3.188665 0.198828 -1.957957
v 3.908429 0.001172 -1.955035
v 3.908429 0.198828 -1.955035
v 3.189414 0.001172 -2.142309
v 3.189414 0.198828 -2.142309
v 3.909178 0.001172 -2.139387
v 3.909178 0.198828 -2.139387
vn -0.0041 -0.0000 1.0000
vn 1.0000 -0.0000 0.0041
vn 0.0041 -0.0000 -1.0000
vn -1.0000 -0.0000 -0.0041
vn -0.0000 -1.0000 -0.0000
vn -0.0000 1.0000 -0.0000
vt 0.375000 0.000000
vt 0.625000 0.000000
vt 0.625000 0.250000
vt 0.375000 0.250000
vt 0.625000 0.500000
vt 0.375000 0.500000
vt 0.625000 0.750000
vt 0.375000 0.750000
vt 0.625000 1.000000
vt 0.375000 1.000000
vt 0.125000 0.500000
vt 0.125000 0.750000
vt 0.875000 0.500000
vt 0.875000 0.750000
s 0
f 33/29/13 35/32/13 36/31/13 34/30/13
f 35/32/14 39/34/14 40/33/14 36/31/14
f 39/34/15 37/36/15 38/35/15 40/33/15
f 37/36/16 33/38/16 34/37/16 38/35/16
f 35/39/17 33/40/17 37/36/17 39/34/17
f 40/33/18 38/35/18 34/42/18 36/41/18
o Crayon.001
v 0.107997 0.001172 -1.131393
v 0.107997 0.198828 -1.131393
v -0.175278 0.001172 -1.793075
v -0.175278 0.198828 -1.793075
v -0.061479 0.001172 -1.058838
v -0.061479 0.198828 -1.058838
v -0.344755 0.001172 -1.720520
v -0.344755 0.198828 -1.720520
vn 0.9193 -0.0000 -0.3936
vn -0.3936 -0.0000 -0.9193
vn -0.9193 -0.0000 0.3936
vn 0.3936 -0.0000 0.9193
vn -0.0000 -1.0000 -0.0000
vn -0.0000 1.0000 -0.0000
vt 0.375000 0.000000
vt 0.625000 0.000000
vt 0.625000 0.250000
vt 0.375000 0.250000
vt 0.625000 0.500000
vt 0.375000 0.500000
vt 0.625000 0.750000
vt 0.375000 0.750000
vt 0.625000 1.000000
vt 0.375000 1.000000
vt 0.125000 0.500000
vt 0.125000 0.750000
vt 0.875000 0.500000
vt 0.875000 0.750000
s 0
f 41/43/19 43/46/19 44/45/19 42/44/19
f 43/46/20 47/48/20 48/47/20 44/45/20
f 47/48/21 45/50/21 46/49/21 48/47/21
f 45/50/22 41/52/22 42/51/22 46/49/22
f 43/53/23 41/54/23 45/50/23 47/48/23
f 48/47/24 46/49/24 42/56/24 44/55/24
o Crayon.002
v 0.953672 0.001172 -3.339168
v 0.953672 0.198828 -3.339168
v 0.239643 0.001172 -3.248445
v 0.239643 0.198828 -3.248445
v 0.976909 0.001172 -3.156285
v 0.976909 0.198828 -3.156285
v 0.262880 0.001172 -3.065561
v 0.262880 0.198828 -3.065561
vn -0.1260 -0.0000 -0.9920
vn -0.9920 -0.0000 0.1260
vn 0.1260 -0.0000 0.9920
vn 0.9920 -0.0000 -0.1260
vn -0.0000 -1.0000 -0.0000
vn -0.0000 1.0000 -0.0000
vt 0.375000 0.000000
vt 0.625000 0.000000
vt 0.625000 0.250000
vt 0.375000 0.250000
vt 0.625000 0.500000
vt 0.375000 0.500000
vt 0.625000 0.750000
vt 0.375000 0.750000
vt 0.625000 1.000000
vt 0.375000 1.000000
vt 0.125000 0.500000
vt 0.125000 0.750000
vt 0.875000 0.500000
vt 0.875000 0.750000
s 0
f 49/57/25 51/60/25 52/59/25 50/58/25
f 51/60/26 55/62/26 56/61/26 52/59/26
f 55/62/27 53/64/27 54/63/27 56/61/27
f 53/64/28 49/66/28 50/65/28 54/63/28
f 51/67/29 49/68/29 53/64/29 55/62/29
f 56/61/30 54/63/30 50/70/30 52/69/30
o Pot_de_plante
v 2.602173 0.095078 3.877522
v 2.602173 1.610922 3.877522
v 2.602173 0.095078 2.372211
v 2.602173 1.610922 2.372211
v 3.908643 0.095078 3.877522
v 3.908643 1.610922 3.877522
v 3.908643 0.095078 2.372211
v 3.908643 1.610922 2.372211
vn -1.0000 -0.0000 -0.0000
vn -0.0000 -0.0000 -1.0000
vn 1.0000 -0.0000 -0.0000
vn -0.0000 -0.0000 1.0000
vn -0.0000 -1.0000 -0.0000
vn -0.0000 1.0000 -0.0000
vt 0.375000 0.000000
vt 0.625000 0.000000
vt 0.625000 0.250000
vt 0.375000 0.250000
vt 0.625000 0.500000
vt 0.375000 0.500000
vt 0.625000 0.750000
vt 0.375000 0.750000
vt 0.625000 1.000000
vt 0.375000 1.000000
vt 0.125000 0.500000
vt 0.125000 0.750000
vt 0.875000 0.500000
vt 0.875000 0.750000
s 0
f 57/71/31 58/72/31 60/73/31 59/74/31
f 59/74/32 60/73/32 64/75/32 63/76/32
f 63/76/33 64/75/33 62/77/33 61/78/33
f 61/78/34 62/77/34 58/79/34 57/80/34
f 59/81/35 63/76/35 61/78/35 57/82/35
f 64/75/36 60/83/36 58/84/36 62/77/36
